#!OML:ASF F:\VICON\USERDATA\INSTALL\rory3\rory3.ASF
:FULLY-SPECIFIED
:DEGREES
52
root -7.433466306635379 17.73015514341024 3.33956030070339 2.0498388008918482 70.27299770239833 -15.37500498085916
lfemur -35.81185332424921 23.898256561117872 -4.227399885589104
ltibia 36.236923796842824
lfoot -3.4629434164747757 -4.324560190178211
ltoes -6.359173328170062
rfemur -34.25872855281537 -1.65495115608956 19.22224432724242
rtibia 32.583471439824855
rfoot -2.823467710675578 20.738787300410664
rtoes 14.492658741051208
lowerback 8.7543394318823 -9.569145860480857 -10.913148576050812
upperback 3.2697795565898122 -13.979735352100521 1.044139345773458
thorax 2.13190450422121 -7.379083367749889 8.250431399198476
lowerneck -10.00974919305118 13.396940092636175 2.1019546294556144
upperneck 15.57407733820074 22.68788335315423 -14.862803215328086
head 9.993753502910945 9.612558077679028 -2.6088947198614405
lclavicle -7.0237659390979566e-15 -5.194210764852907e-15
lhumerus 86.93564347667892 -37.20763336060237 61.397294772686294
lradius 29.217825505102095
lwrist 5.344132913940239
lhand -8.417355647410872 7.637494857523146
lfingers 7.125020000000003
lthumb -168.3426873208873 317.22531185823203
rclavicle -7.0137610205560424e-15 -5.152962863300756e-15
rhumerus 23.642915295962197 -14.444674320200365 -72.81109642455266
rradius 84.21238889934799
rwrist -32.521567465944976
rhand -53.36798999003713 3.5573055298980183
rfingers 7.125020000000003
rthumb -32.36543408407589 -18.132703219652576
53
root -7.41309495792957 17.74532811037792 3.075771120266163 -4.703295756264794 76.23219794412397 -22.446620967458315
lfemur -38.897827803561015 19.739426433341972 -6.497592692947372
ltibia 35.558193286135555
lfoot -2.1159359558924216 -7.8303412177770255
ltoes -6.934954505135607
rfemur -32.948929867815025 -2.5859228343634086 16.876967516265864
rtibia 32.96750231949846
rfoot -2.9356317719580254 18.173085678722835
rtoes 9.089833776121509
lowerback 7.909770933363096 -9.640450219696524 -9.352577868420124
upperback 3.8237846803120563 -13.828031721211639 2.2423704175826256
thorax 2.942730281588579 -7.330017430484107 8.505894314555839
lowerneck -10.548884303902327 11.409248225601466 2.637816311035675
upperneck 16.814968822751013 20.013242840501764 -15.225212219763211
head 10.384782710697863 8.247514934220323 -3.0828502242120512
lclavicle -7.023300604405247e-15 -5.188742933739793e-15
lhumerus 81.50144787041448 -37.01274914313445 64.58658099699997
lradius 28.06601331427456
lwrist 5.193125640321611
lhand -7.787653985864178 9.943719543192472
lfingers 7.125020000000003
lthumb -168.0524956898053 331.65992980188304
rclavicle -7.012754919465056e-15 -5.152164148308515e-15
rhumerus 20.629722814326676 -11.999563307875635 -74.71624185058185
rradius 81.15168006297017
rwrist -34.94707154873532
rhand -50.79520955130826 1.3197464570001145
rfingers 7.125020000000003
rthumb -29.80016270646704 -21.563202188488255
54
root -7.391406944521972 17.772386791292806 2.7819807438386954 -26.446978378605905 82.61771863146105 -44.26050207338015
lfemur -40.625505971945586 14.856124266053996 -8.729222918734218
ltibia 34.30568612512543
lfoot -0.5442794204426349 -11.923218903497721
ltoes -7.094889230816946
rfemur -31.112507672384996 -3.0860795959935077 14.362781056352123
rtibia 33.44243310514505
rfoot -3.0158214544949082 15.408300179836631
rtoes 3.109118707302116
lowerback 6.7366807865255725 -9.75170060063112 -7.588567001544232
upperback 4.293995191383266 -13.763519801059713 3.4621034677468803
thorax 3.8024265845906244 -7.278496825575969 8.537016683383154
lowerneck -11.00852694709985 9.15517982876965 3.0394733619406997
upperneck 18.39084226933981 16.815068019888276 -15.396303183483404
head 10.743601402041454 6.716882067893972 -3.5867045866358627
lclavicle -7.0243528963743465e-15 -5.1959796395789e-15
lhumerus 76.08875197102711 -36.382626172366784 67.85284160303763
lradius 26.754586513881584
lwrist 4.565421882904989
lhand -7.538836826817874 12.288185364697183
lfingers 7.125020000000003
lthumb -167.78278001952282 342.98240984927196
rclavicle -7.011918352023097e-15 -5.151468886182967e-15
rhumerus 17.70229781658005 -9.21876271321515 -76.46412628750095
rradius 77.47773636550527
rwrist -36.995328074574374
rhand -47.632199869566584 0.07782182362807788
rfingers 7.125020000000003
rthumb -26.262815891856835 -24.238705136978844
55
root -7.33421362414018 17.829721917327536 2.438416574238234 -128.8316154705332 81.87855267943819 -147.80841169989617
lfemur -41.01812744974762 9.582381572972672 -10.860971885629112
ltibia 32.188612254082386
lfoot 1.1472369521556463 -17.180533344134936
ltoes -6.355535107814621
rfemur -28.56090251331623 -3.873702768339969 11.46973025296331
rtibia 34.190995497328416
rfoot -3.131376320869629 12.594978848525335
rtoes -5.308811408634149
lowerback 4.94629840942458 -9.984846537894764 -5.13170934185047
upperback 4.66070482360509 -13.682189187365415 4.536202973981212
thorax 4.734339975658688 -7.164599809190369 8.039162387781676
lowerneck -11.309047108603943 6.8115994480948565 3.3615761058152414
upperneck 20.28538331495831 13.113573241202355 -15.27665117204809
head 10.983249391013045 4.905636226114007 -4.132190079044258
lclavicle -7.026426989644458e-15 -5.220440434549773e-15
lhumerus 70.50195108815464 -35.706787171655876 70.39051906246759
lradius 25.47713096672301
lwrist 4.011276889613967
lhand -7.0092068650461385 15.164186503066222
lfingers 7.125020000000003
lthumb -167.48942341208758 349.2140754614727
rclavicle -7.0126916030926216e-15 -5.1520050033866824e-15
rhumerus 14.569107040237448 -6.346228575370263 -78.22230414897983
rradius 72.77436010493751
rwrist -38.61601604146573
rhand -44.199936708580644 -0.7776343245987114
rfingers 7.125020000000003
rthumb -22.330841675321466 -25.805627690467574
